<?xml version="1.0" standalone="no"?>
<!DOCTYPE svg PUBLIC "-//W3C//DTD SVG 20010904//EN"
 "http://www.w3.org/TR/2001/REC-SVG-20010904/DTD/svg10.dtd">
<svg version="1.0" xmlns="http://www.w3.org/2000/svg"
 width="512.000000pt" height="512.000000pt" viewBox="0 0 512.000000 512.000000"
 preserveAspectRatio="xMidYMid meet">
<metadata>
Created by potrace 1.11, written by Peter Selinger 2001-2013
</metadata>
<g transform="translate(0.000000,512.000000) scale(0.100000,-0.100000)"
fill="#000000" stroke="none">
<path d="M2850 5113 c-115 -12 -226 -33 -344 -63 -490 -127 -922 -442 -1208
-880 -64 -97 -157 -278 -187 -360 -7 -19 -17 -44 -22 -55 -22 -54 -62 -201
-84 -314 -116 -588 23 -1182 386 -1661 59 -78 75 -96 142 -167 l39 -41 -331
-333 c-304 -305 -335 -339 -367 -404 -79 -166 -47 -357 82 -490 106 -108 471
-260 739 -309 147 -27 169 -29 355 -31 212 -3 301 5 480 45 421 95 791 310
1085 631 223 244 386 544 470 862 129 489 76 1015 -145 1457 -57 114 -155 276
-180 300 -3 3 -17 20 -30 39 -13 19 -59 75 -101 124 l-78 89 302 303 c365 365
363 363 393 430 33 72 37 87 40 177 6 183 -80 315 -272 415 -217 113 -418 180
-659 220 -84 14 -423 24 -505 16z"/>
</g>
</svg>
