<?xml version="1.0" encoding="UTF-8"?>
<svg width="86px" height="90px" viewBox="0 0 86 90" version="1.1" xmlns="http://www.w3.org/2000/svg" xmlns:xlink="http://www.w3.org/1999/xlink">
    <!-- Generator: Sketch 49.3 (51167) - http://www.bohemiancoding.com/sketch -->
    <title>622f964a-6e84-c69a-0dbe-dc5c21d9dae5 copy</title>
    <desc>Created with Sketch.</desc>
    <defs>
        <linearGradient x1="0%" y1="0%" x2="100%" y2="0%" id="linearGradient-1">
            <stop stop-color="#E90DCA" offset="0%"></stop>
            <stop stop-color="#1536F1" offset="100%"></stop>
        </linearGradient>
    </defs>
    <g id="References" stroke="none" stroke-width="1" fill="none" fill-rule="evenodd">
        <g id="Artboard-2" transform="translate(-1459.000000, -392.000000)" fill="url(#linearGradient-1)" fill-rule="nonzero">
            <g id="622f964a-6e84-c69a-0dbe-dc5c21d9dae5-copy" transform="translate(1459.000000, 392.000000)">
                <g id="Group">
                    <path d="M85.2705542,0.197386364 C80.3758072,3.21545455 76.7068193,5.63113636 73.343494,10.4604545 C66.3080723,20.7235227 70.8971566,35.5152273 70.5894217,47.2878409 C70.283759,62.3802273 58.3566988,78.6794318 43.6786747,82.6036364 C37.2566506,84.1131818 30.2222651,85.0182955 23.4956145,85.9244318 C18.9075663,86.8305682 6.36918072,90.4520455 3.92387952,88.6397727 C0.865180723,86.5278409 -1.27549398,79.5845455 0.865180723,77.4715909 C3.92387952,74.7552273 9.73457831,74.4535227 13.0979036,70.8310227 C18.9075663,65.0965909 21.9662651,57.8515909 24.1069398,50.0031818 C28.9996145,34.3063636 27.4713012,15.5925 43.373012,5.32943182 C55.6067711,-2.51897727 71.5084819,0.801818182 85.2705542,0.197386364 Z M39.9288675,12.9047727 C39.7641205,13.0469318 40.764,13.6339773 42.4342651,14.4685227 C40.8924819,16.6663636 39.2108193,19.6230682 37.5208675,23.6004545 C39.7641205,22.275 41.4986265,21.3064773 44.0351084,20.9301136 C44.7706666,20.8281322 45.5167354,20.8236608 46.253494,20.9168182 C45.8992274,22.7949416 45.6532655,24.6914017 45.5167952,26.5970455 C46.8461687,25.2603409 47.9610602,24.1875 49.457253,23.3325 C49.9421687,25.1734091 50.3037831,26.5019318 50.3037831,26.5019318 C50.9342076,25.8923717 51.6091749,25.3293774 52.3232289,24.8175 C52.5822651,25.4260227 52.8050361,26.0468182 52.9386988,26.6982955 C53.4619518,29.3410227 53.1138072,31.2238636 52.5853735,33.6651136 C58.8872048,29.6652273 61.647494,26.0498864 62.8546024,23.5503409 C64.2254217,24.1322727 65.072988,24.4881818 65.072988,24.4881818 C64.8533253,20.7286364 65.2688193,17.0836364 66.9287229,13.7311364 C69.2724819,9.07159091 72.1944096,6.49738636 76.1162169,3.24102273 C46.4482892,2.71738636 39.9288675,12.9047727 39.9288675,12.9047727 Z" id="Shape"></path>
                </g>
            </g>
        </g>
    </g>
</svg>