<?xml version="1.0" encoding="UTF-8"?>
<svg width="64px" height="60px" viewBox="0 0 64 60" version="1.1" xmlns="http://www.w3.org/2000/svg" xmlns:xlink="http://www.w3.org/1999/xlink">
    <!-- Generator: Sketch 49.3 (51167) - http://www.bohemiancoding.com/sketch -->
    <title>icon</title>
    <desc>Created with Sketch.</desc>
    <defs>
        <linearGradient x1="0%" y1="0%" x2="100%" y2="0%" id="linearGradient-1">
            <stop stop-color="#410FF8" offset="0%"></stop>
            <stop stop-color="#410FF8" offset="100%"></stop>
        </linearGradient>
    </defs>
    <g id="References" stroke="none" stroke-width="1" fill="none" fill-rule="evenodd">
        <g id="Artboard-2" transform="translate(-2168.000000, -925.000000)" fill="url(#linearGradient-1)" fill-rule="nonzero">
            <g id="Group-4" transform="translate(2152.000000, 907.000000)">
                <g id="icon" transform="translate(16.000000, 18.000000)">
                    <g id="a831eb58-3e49-fece-4b12-7a33fbd0d843">
                        <g id="Group">
                            <path d="M61.8666667,10.5 C63.1466667,10.0714286 64,8.78571429 64,7.5 C64,5.78571429 62.5066667,4.28571429 60.8,4.28571429 C59.0933333,4.28571429 57.6,5.78571429 57.6,7.5 C57.6,9 58.4533333,10.0714286 59.7333333,10.5 L59.7333333,21.8571429 C59.52,21.8571429 59.3066667,21.6428571 59.0933333,21.6428571 C56.1066667,9.21428571 45.2266667,0 32,0 C18.7733333,0 7.89333333,9.21428571 4.90666667,21.6428571 C2.13333333,22.2857143 0,24.8571429 0,27.8571429 C0,30.8571429 2.13333333,33.4285714 4.90666667,34.0714286 C5.97333333,38.3571429 7.89333333,42.2142857 10.6666667,45.6428571 L10.6666667,51.4285714 C10.6666667,51.4285714 14.9333333,60 32,60 C49.0666667,60 53.3333333,51.4285714 53.3333333,51.4285714 L53.3333333,45.6428571 C56.1066667,42.4285714 58.0266667,38.3571429 59.0933333,34.0714286 C61.8666667,33.4285714 64,30.8571429 64,27.8571429 C64,25.9285714 63.1466667,24.2142857 61.8666667,23.1428571 L61.8666667,10.5 Z M55.68,34.0714286 C54.6133333,38.3571429 52.48,42 49.4933333,45 C45.0133333,49.7142857 38.8266667,45 32,45 C25.1733333,45 18.7733333,49.7142857 14.5066667,45 C11.52,42 9.38666667,38.1428571 8.32,34.0714286 C7.68,31.9285714 7.46666667,30 7.46666667,27.8571429 C7.46666667,25.7142857 7.68,23.7857143 8.32,21.6428571 C11.0933333,10.9285714 20.6933333,7.5 32,7.5 C43.52,7.5 53.12,11.1428571 55.68,21.6428571 C56.1066667,23.5714286 56.5333333,25.7142857 56.5333333,27.8571429 C56.5333333,30 56.32,31.9285714 55.68,34.0714286 Z M32,12.6428571 C23.4666667,12.6428571 16.4266667,15.4285714 14.2933333,23.3571429 C13.8666667,24.8571429 13.6533333,26.3571429 13.6533333,27.8571429 C13.6533333,29.3571429 13.8666667,30.8571429 14.2933333,32.3571429 L14.5066667,32.7857143 C18.7733333,29.3571429 25.8133333,25.5 35.2,25.5 C26.24,29.1428571 20.48,34.2857143 17.28,38.3571429 C17.92,39.2142857 18.3466667,39.8571429 18.9866667,40.5 C20.0533333,41.5714286 21.3333333,42 22.6133333,42 C25.3866667,42 28.5866667,40.5 32,40.5 C35.4133333,40.5 38.6133333,42 41.3866667,42 C42.6666667,42 43.9466667,41.5714286 45.0133333,40.5 C47.1466667,38.1428571 48.8533333,35.3571429 49.4933333,32.3571429 C49.92,30.8571429 50.1333333,29.3571429 50.1333333,27.8571429 C50.1333333,26.3571429 49.92,24.8571429 49.4933333,23.3571429 C47.5733333,15.2142857 40.5333333,12.6428571 32,12.6428571 Z" id="Shape"></path>
                        </g>
                    </g>
                </g>
            </g>
        </g>
    </g>
</svg>